<?xml version="1.0" encoding="UTF-8"?>
<svg id="Capa_2" data-name="Capa 2" xmlns="http://www.w3.org/2000/svg" xmlns:xlink="http://www.w3.org/1999/xlink" viewBox="0 0 1766.79 1575.53">
  <defs>
    <style>
      .cls-1 {
        fill: #8a39aa;
      }

      .cls-2 {
        fill: #fff;
      }

      .cls-3 {
        fill: #ff952c;
      }

      .cls-4 {
        fill: #b74d00;
      }

      .cls-5 {
        fill: #e5a973;
      }

      .cls-6 {
        opacity: .5;
      }

      .cls-6, .cls-7 {
        fill: #64177a;
      }

      .cls-8 {
        fill: #a657ce;
      }

      .cls-9 {
        clip-path: url(#clippath-1);
      }

      .cls-10 {
        fill: #d35d00;
      }

      .cls-11 {
        opacity: .3;
      }

      .cls-12 {
        fill: #712789;
      }

      .cls-13 {
        clip-path: url(#clippath);
      }

      .cls-14 {
        fill: none;
      }

      .cls-15 {
        fill: #ba79e0;
      }

      .cls-16 {
        fill: #eed4ff;
      }
    </style>
    <clipPath id="clippath">
      <path class="cls-14" d="M1445.05,813.94l100.38-409.8-379.29-224.82,218.93-100.9,281.62,108.6s1.71,496.23,0,501.23c-1.71,5-104.32,171.49-104.32,171.49l-117.31-45.79Z"/>
    </clipPath>
    <clipPath id="clippath-1">
      <path class="cls-14" d="M1445.05,813.94l100.38-409.8-379.29-224.82-462.45,171.99,354.89,463.1s293.01,166.97,291.3,171.97c-1.71,5,212.48-126.64,212.48-126.64l-117.31-45.79Z"/>
    </clipPath>
  </defs>
  <g id="Capa_1-2" data-name="Capa 1">
    <g>
      <g>
        <path class="cls-6" d="M1061.15,1376.69L430.85,1012.79c-17.83-10.29-15.59-28.28,4.99-40.16l429.19-247.71c20.59-11.89,51.73-13.18,69.56-2.88l630.3,363.9c17.83,10.29,15.59,28.28-4.99,40.16l-429.19,247.71c-20.59,11.89-51.73,13.18-69.56,2.88Z"/>
        <path class="cls-7" d="M1741.5,382.72L1085.64,4.06c-7.62-4.4-15.36-5.08-22.22-2.72l.04-.07-1.19,.45c-.1,.04-.19,.07-.29,.11l-23.7,9.07,21.27,10.42c-.1,.39-.22,.76-.31,1.16l-106.83,486.28c-5.35,24.34,5.36,52.75,23.91,63.46l640.09,369.55-2.28,27.12,25.91-10.04c8.7-4.07,15.67-13.28,18.55-26.39l106.83-486.28c5.35-24.34-5.36-52.75-23.91-63.46Z"/>
        <path class="cls-1" d="M1741.5,382.72L1085.64,4.06c-7.62-4.4-15.36-5.08-22.22-2.72l.04-.07-1.19,.45c-.1,.04-.19,.07-.29,.11l-23.7,9.07,21.27,10.42c-.1,.39-.22,.76-.31,1.16l-70.41,320.49,320.9,250.01,452.48-184.12c-4.35-11.27-11.57-20.86-20.72-26.14Z"/>
        <path class="cls-12" d="M1716.77,457.47l49.93-21.26c.92-19.34-7.09-39.31-20.23-49.99l-79.03,33.24,49.33,38.01Z"/>
        <path class="cls-16" d="M1591.35,966.3l-655.86-378.66c-18.55-10.71-29.26-39.12-23.91-63.46L1018.4,37.9c5.35-24.34,24.72-35.38,43.27-24.67l655.86,378.66c18.55,10.71,29.26,39.12,23.91,63.46l-106.83,486.28c-5.35,24.34-24.72,35.38-43.27,24.67Z"/>
        <path class="cls-2" d="M1723.83,389.59L1067.97,10.93c-8.99-5.19-18.14-5.18-25.82-1.12,6.17-1.35,12.89-.41,19.53,3.43l655.86,378.66c18.55,10.71,29.26,39.13,23.91,63.46l-106.83,486.28c-2.76,12.55-9.27,21.47-17.45,25.79,11.07-2.42,20.31-12.46,23.75-28.09l106.83-486.28c5.35-24.33-5.36-52.75-23.91-63.46Z"/>
        <path class="cls-2" d="M1577.13,930.13l-616.82-355.95c-16.98-9.8-26.78-35.8-21.88-58.07l97.76-444.99c4.89-22.27,22.62-32.38,39.6-22.57l616.82,355.95c16.98,9.8,26.78,35.8,21.88,58.07l-97.76,444.99c-4.89,22.27-22.62,32.38-39.6,22.57Z"/>
        <path class="cls-7" d="M1577.13,930.13l-616.82-355.95c-16.98-9.8-26.78-35.8-21.88-58.07l97.76-444.99c4.89-22.27,22.62-32.38,39.6-22.57l616.82,355.95c16.98,9.8,26.78,35.8,21.88,58.07l-97.76,444.99c-4.89,22.27-22.62,32.38-39.6,22.57Z"/>
        <path class="cls-8" d="M1582.51,927.95l-616.82-355.95c-16.98-9.8-26.77-35.8-21.88-58.07l97.76-444.99c2.48-11.27,8.25-19.39,15.54-23.42-9.78,2.52-17.86,11.68-20.92,25.61l-97.76,444.98c-4.89,22.27,4.9,48.27,21.88,58.07l616.82,355.95c8.38,4.84,16.94,4.79,24.06,.85-5.86,1.51-12.32,.63-18.68-3.04Z"/>
        <path class="cls-7" d="M1600.4,982.8l-89.65-11.84-578.72-334.12c-18.55-10.71-50.96-9.37-72.38,3l-410.08,236.67-54.21-7.16v30.76h.05c-.35,7.12,3.69,13.95,12.45,19.01l655.86,378.66c18.55,10.71,50.96,9.37,72.39-3l446.59-257.75c12.05-6.96,18.06-15.92,17.71-24.34h0v-29.88Z"/>
        <path class="cls-1" d="M1165.57,771.67l-41.12-23.74h-452.04l-222.85,128.58-54.21-7.16v30.76h.05c-.35,7.12,3.69,13.95,12.45,19.01l655.86,378.66c9.8,5.66,23.48,7.92,37.36,7l64.5-533.11Z"/>
        <path class="cls-8" d="M419.41,872.53l-24.06-3.18v30.76h.05c-.35,7.12,3.69,13.95,12.45,19.01l11.56,6.67v-53.26Z"/>
        <path class="cls-12" d="M1070.32,1300.84c17.59,6.67,42.73,5.22,61.5-3.82v-68.61h-61.5v72.43Z"/>
        <path class="cls-16" d="M1063.72,1267.05L407.86,888.39c-18.55-10.71-16.23-29.42,5.2-41.79l446.59-257.75c21.42-12.37,53.83-13.71,72.39-3l655.86,378.66c18.55,10.71,16.23,29.42-5.2,41.79l-446.59,257.75c-21.42,12.37-53.83,13.71-72.39,3Z"/>
        <path class="cls-2" d="M1582.69,995.06l-446.59,257.75c-21.42,12.37-53.83,13.71-72.39,3L407.86,877.16c-6.08-3.51-9.88-7.89-11.53-12.62-2.9,8.78,.8,17.65,11.53,23.85l655.86,378.66c18.55,10.71,50.96,9.37,72.39-3l446.59-257.75c14.4-8.31,20.13-19.49,16.73-29.18-2.11,6.39-7.7,12.73-16.73,17.94Z"/>
        <g>
          <path class="cls-8" d="M686.8,763.03l-29.67-17.13c-2.38-1.38-2.08-3.78,.67-5.37l35.03-20.22c2.75-1.59,6.91-1.76,9.3-.39l29.67,17.13c2.38,1.38,2.08,3.78-.67,5.37l-35.03,20.22c-2.75,1.59-6.91,1.76-9.3,.39Z"/>
          <path class="cls-8" d="M732.63,789.49l-29.67-17.13c-2.38-1.38-2.08-3.78,.67-5.37l35.03-20.22c2.75-1.59,6.91-1.76,9.3-.39l29.67,17.13c2.38,1.38,2.08,3.78-.67,5.37l-35.03,20.22c-2.75,1.59-6.91,1.76-9.3,.39Z"/>
          <path class="cls-8" d="M778.46,815.95l-29.67-17.13c-2.38-1.38-2.08-3.78,.67-5.37l35.03-20.22c2.75-1.59,6.91-1.76,9.3-.39l29.68,17.13c2.38,1.38,2.08,3.78-.67,5.37l-35.03,20.22c-2.75,1.59-6.91,1.76-9.3,.39Z"/>
          <path class="cls-8" d="M841.84,794.1l-29.67-17.13c-2.38-1.38-2.08-3.78,.67-5.37l29.4-16.98c2.75-1.59,6.91-1.76,9.3-.39l29.67,17.13c2.38,1.38,2.08,3.78-.67,5.37l-29.4,16.98c-2.75,1.59-6.91,1.76-9.3,.38Z"/>
          <path class="cls-8" d="M887.67,820.56l-29.67-17.13c-2.38-1.38-2.08-3.78,.67-5.37l29.4-16.98c2.75-1.59,6.91-1.76,9.3-.39l29.67,17.13c2.38,1.38,2.08,3.78-.67,5.37l-29.4,16.98c-2.75,1.59-6.91,1.76-9.3,.39Z"/>
          <path class="cls-8" d="M933.49,847.02l-29.67-17.13c-2.38-1.38-2.08-3.78,.67-5.37l29.4-16.98c2.75-1.59,6.91-1.76,9.3-.39l29.67,17.13c2.38,1.38,2.08,3.78-.67,5.37l-29.4,16.98c-2.75,1.59-6.91,1.76-9.3,.39Z"/>
          <path class="cls-8" d="M979.32,873.47l-29.67-17.13c-2.38-1.38-2.08-3.78,.67-5.37l29.4-16.98c2.75-1.59,6.91-1.76,9.3-.39l29.67,17.13c2.38,1.38,2.08,3.78-.67,5.37l-29.4,16.98c-2.75,1.59-6.91,1.76-9.3,.39Z"/>
          <path class="cls-8" d="M1025.15,899.93l-29.67-17.13c-2.38-1.38-2.08-3.78,.67-5.37l29.4-16.98c2.75-1.59,6.91-1.76,9.3-.38l29.68,17.13c2.38,1.38,2.08,3.78-.67,5.37l-29.4,16.98c-2.75,1.59-6.91,1.76-9.3,.39Z"/>
          <path class="cls-8" d="M1070.97,926.39l-29.67-17.13c-2.38-1.38-2.08-3.78,.67-5.37l29.4-16.98c2.75-1.59,6.91-1.76,9.3-.38l29.67,17.13c2.38,1.38,2.08,3.78-.67,5.37l-29.4,16.98c-2.75,1.59-6.91,1.76-9.3,.39Z"/>
          <path class="cls-8" d="M1116.8,952.85l-29.67-17.13c-2.38-1.38-2.08-3.78,.67-5.37l29.4-16.98c2.75-1.59,6.91-1.76,9.3-.39l29.67,17.13c2.38,1.38,2.08,3.78-.67,5.37l-29.4,16.98c-2.75,1.59-6.91,1.76-9.3,.38Z"/>
          <path class="cls-8" d="M1162.63,979.31l-29.68-17.13c-2.38-1.38-2.08-3.78,.67-5.37l29.4-16.98c2.75-1.59,6.91-1.76,9.3-.39l29.68,17.13c2.38,1.38,2.08,3.78-.67,5.37l-29.4,16.98c-2.75,1.59-6.91,1.76-9.3,.39Z"/>
          <path class="cls-8" d="M1208.46,1005.77l-29.68-17.13c-2.38-1.38-2.08-3.78,.67-5.37l29.4-16.98c2.75-1.59,6.91-1.76,9.3-.39l29.67,17.13c2.38,1.38,2.08,3.78-.67,5.37l-29.4,16.98c-2.75,1.59-6.91,1.76-9.3,.39Z"/>
          <path class="cls-8" d="M1254.28,1032.22l-29.68-17.13c-2.38-1.38-2.08-3.78,.67-5.37l29.4-16.98c2.75-1.59,6.91-1.76,9.3-.39l29.67,17.13c2.38,1.38,2.08,3.78-.67,5.37l-29.4,16.98c-2.75,1.59-6.91,1.76-9.3,.39Z"/>
          <path class="cls-8" d="M909.36,781.57l-29.67-17.13c-2.38-1.38-2.08-3.78,.67-5.37l29.4-16.98c2.75-1.59,6.91-1.76,9.3-.39l29.67,17.13c2.38,1.38,2.08,3.78-.67,5.37l-29.4,16.98c-2.75,1.59-6.91,1.76-9.3,.39Z"/>
          <path class="cls-8" d="M862.85,754.72l-29.67-17.13c-2.38-1.38-2.08-3.78,.67-5.37l29.4-16.98c2.75-1.59,6.91-1.76,9.3-.38l29.67,17.13c2.38,1.38,2.08,3.78-.67,5.37l-29.4,16.98c-2.75,1.59-6.91,1.76-9.3,.39Z"/>
          <path class="cls-8" d="M816.26,727.82l-63.91-36.9c-2.38-1.38-2.08-3.78,.67-5.37l29.4-16.98c2.75-1.59,6.91-1.76,9.3-.38l63.91,36.9c2.38,1.38,2.08,3.78-.67,5.37l-29.4,16.98c-2.75,1.59-6.91,1.76-9.3,.39Z"/>
          <path class="cls-8" d="M848.83,695.11l-51.87-29.95c-2.38-1.38-2.08-3.78,.67-5.37l29.4-16.98c2.75-1.59,6.91-1.76,9.3-.39l51.87,29.95c2.38,1.38,2.08,3.78-.67,5.37l-29.4,16.98c-2.75,1.59-6.91,1.76-9.3,.38Z"/>
          <path class="cls-8" d="M955.19,808.03l-29.67-17.13c-2.38-1.38-2.08-3.78,.67-5.37l29.4-16.98c2.75-1.59,6.91-1.76,9.3-.39l29.67,17.13c2.38,1.38,2.08,3.78-.67,5.37l-29.4,16.98c-2.75,1.59-6.91,1.76-9.3,.39Z"/>
          <path class="cls-8" d="M1001.02,834.49l-29.67-17.13c-2.38-1.38-2.08-3.78,.67-5.37l29.4-16.98c2.75-1.59,6.91-1.76,9.3-.39l29.67,17.13c2.38,1.38,2.08,3.78-.67,5.37l-29.4,16.98c-2.75,1.59-6.91,1.76-9.3,.39Z"/>
          <path class="cls-8" d="M1046.84,860.95l-29.67-17.13c-2.38-1.38-2.08-3.78,.67-5.37l29.4-16.98c2.75-1.59,6.91-1.76,9.3-.38l29.67,17.13c2.38,1.38,2.08,3.78-.67,5.37l-29.4,16.98c-2.75,1.59-6.91,1.76-9.3,.39Z"/>
          <path class="cls-8" d="M1092.67,887.41l-29.67-17.13c-2.38-1.38-2.08-3.78,.67-5.37l29.4-16.98c2.75-1.59,6.91-1.76,9.3-.39l29.67,17.13c2.38,1.38,2.08,3.78-.67,5.37l-29.4,16.98c-2.75,1.59-6.91,1.76-9.3,.38Z"/>
          <path class="cls-8" d="M1138.5,913.86l-29.67-17.13c-2.38-1.38-2.08-3.78,.67-5.37l29.4-16.98c2.75-1.59,6.91-1.76,9.3-.39l29.67,17.13c2.38,1.38,2.08,3.78-.67,5.37l-29.4,16.98c-2.75,1.59-6.91,1.76-9.3,.39Z"/>
          <path class="cls-8" d="M1184.33,940.32l-29.67-17.13c-2.38-1.38-2.08-3.78,.67-5.37l29.4-16.98c2.75-1.59,6.91-1.76,9.3-.39l29.68,17.13c2.38,1.38,2.08,3.78-.67,5.37l-29.4,16.98c-2.75,1.59-6.91,1.76-9.3,.39Z"/>
          <path class="cls-8" d="M1230.15,966.78l-29.67-17.13c-2.38-1.38-2.08-3.78,.67-5.37l29.4-16.98c2.75-1.59,6.91-1.76,9.3-.39l29.67,17.13c2.38,1.38,2.08,3.78-.67,5.37l-29.4,16.98c-2.75,1.59-6.91,1.76-9.3,.39Z"/>
          <path class="cls-8" d="M1275.98,993.24l-29.67-17.13c-2.38-1.38-2.08-3.78,.67-5.37l29.4-16.98c2.75-1.59,6.91-1.76,9.3-.39l29.67,17.13c2.38,1.38,2.08,3.78-.67,5.37l-29.4,16.98c-2.75,1.59-6.91,1.76-9.3,.39Z"/>
          <path class="cls-8" d="M1321.81,1019.7l-29.67-17.13c-2.38-1.38-2.08-3.78,.67-5.37l29.4-16.98c2.75-1.59,6.91-1.76,9.3-.38l29.68,17.13c2.38,1.38,2.08,3.78-.67,5.37l-29.4,16.98c-2.75,1.59-6.91,1.76-9.3,.39Z"/>
          <path class="cls-8" d="M1403.28,1066.73l-64.75-37.38c-2.38-1.38-2.08-3.78,.67-5.37l29.4-16.98c2.75-1.59,6.91-1.76,9.3-.39l64.75,37.38c2.38,1.38,2.08,3.78-.67,5.37l-29.4,16.98c-2.75,1.59-6.91,1.76-9.3,.39Z"/>
          <path class="cls-8" d="M1492.5,1015.22l-54.65-31.55c-2.38-1.38-2.08-3.78,.67-5.37l29.4-16.98c2.75-1.59,6.91-1.76,9.3-.39l54.65,31.55c2.38,1.38,2.08,3.78-.67,5.37l-29.4,16.98c-2.75,1.59-6.91,1.76-9.3,.38Z"/>
          <path class="cls-8" d="M1035.44,802.85l-29.67-17.13c-2.38-1.38-2.08-3.78,.67-5.37l29.4-16.98c2.75-1.59,6.91-1.76,9.3-.38l29.68,17.13c2.38,1.38,2.08,3.78-.67,5.37l-29.4,16.98c-2.75,1.59-6.91,1.76-9.3,.39Z"/>
          <path class="cls-8" d="M988.48,775.74l-29.67-17.13c-2.38-1.38-2.08-3.78,.67-5.37l29.4-16.98c2.75-1.59,6.91-1.76,9.3-.38l29.67,17.13c2.38,1.38,2.08,3.78-.67,5.37l-29.4,16.98c-2.75,1.59-6.91,1.76-9.3,.39Z"/>
          <path class="cls-8" d="M941.51,748.62l-29.67-17.13c-2.38-1.38-2.08-3.78,.67-5.37l29.4-16.98c2.75-1.59,6.91-1.76,9.3-.39l29.67,17.13c2.38,1.38,2.08,3.78-.67,5.37l-29.4,16.98c-2.75,1.59-6.91,1.76-9.3,.38Z"/>
          <path class="cls-8" d="M894.54,721.5l-29.68-17.13c-2.38-1.38-2.08-3.78,.67-5.37l29.4-16.98c2.75-1.59,6.91-1.76,9.3-.39l29.67,17.13c2.38,1.38,2.08,3.78-.67,5.37l-29.4,16.98c-2.75,1.59-6.91,1.76-9.3,.38Z"/>
          <path class="cls-8" d="M1081.27,829.31l-29.67-17.13c-2.38-1.38-2.08-3.78,.67-5.37l29.4-16.98c2.75-1.59,6.91-1.76,9.3-.39l29.67,17.13c2.38,1.38,2.08,3.78-.67,5.37l-29.4,16.98c-2.75,1.59-6.91,1.76-9.3,.38Z"/>
          <path class="cls-8" d="M1127.1,855.77l-29.67-17.13c-2.38-1.38-2.08-3.78,.67-5.37l29.4-16.98c2.75-1.59,6.91-1.76,9.3-.39l29.67,17.13c2.38,1.38,2.08,3.78-.67,5.37l-29.4,16.98c-2.75,1.59-6.91,1.76-9.3,.39Z"/>
          <path class="cls-8" d="M1172.92,882.23l-29.67-17.13c-2.38-1.38-2.08-3.78,.67-5.37l29.4-16.98c2.75-1.59,6.91-1.76,9.3-.39l29.68,17.13c2.38,1.38,2.08,3.78-.67,5.37l-29.4,16.98c-2.75,1.59-6.91,1.76-9.3,.39Z"/>
          <path class="cls-8" d="M1218.75,908.69l-29.67-17.13c-2.38-1.38-2.08-3.78,.67-5.37l29.4-16.98c2.75-1.59,6.91-1.76,9.3-.39l29.67,17.13c2.38,1.38,2.08,3.78-.67,5.37l-29.4,16.98c-2.75,1.59-6.91,1.76-9.3,.39Z"/>
          <path class="cls-8" d="M1264.58,935.15l-29.67-17.13c-2.38-1.38-2.08-3.78,.67-5.37l29.4-16.98c2.75-1.59,6.91-1.76,9.3-.39l29.67,17.13c2.38,1.38,2.08,3.78-.67,5.37l-29.4,16.98c-2.75,1.59-6.91,1.76-9.3,.39Z"/>
          <path class="cls-8" d="M1310.41,961.6l-29.68-17.13c-2.38-1.38-2.08-3.78,.67-5.37l29.4-16.98c2.75-1.59,6.91-1.76,9.3-.38l29.67,17.13c2.38,1.38,2.08,3.78-.67,5.37l-29.4,16.98c-2.75,1.59-6.91,1.76-9.3,.39Z"/>
          <path class="cls-8" d="M1356.23,988.06l-29.68-17.13c-2.38-1.38-2.08-3.78,.67-5.37l29.4-16.98c2.75-1.59,6.91-1.76,9.3-.38l29.67,17.13c2.38,1.38,2.08,3.78-.67,5.37l-29.4,16.98c-2.75,1.59-6.91,1.76-9.3,.38Z"/>
          <path class="cls-8" d="M1402.06,1014.52l-29.68-17.13c-2.38-1.38-2.08-3.78,.67-5.37l29.4-16.98c2.75-1.59,6.91-1.76,9.3-.39l29.67,17.13c2.38,1.38,2.08,3.78-.67,5.37l-29.4,16.98c-2.75,1.59-6.91,1.76-9.3,.38Z"/>
          <path class="cls-8" d="M1447.89,1040.98l-29.67-17.13c-2.38-1.38-2.08-3.78,.67-5.37l29.4-16.98c2.75-1.59,6.91-1.76,9.3-.39l29.67,17.13c2.38,1.38,2.08,3.78-.67,5.37l-29.4,16.98c-2.75,1.59-6.91,1.76-9.3,.39Z"/>
          <path class="cls-8" d="M1011.31,737.41l-29.68-17.13c-2.38-1.38-2.08-3.78,.67-5.37l29.4-16.98c2.75-1.59,6.91-1.76,9.3-.38l29.67,17.13c2.38,1.38,2.08,3.78-.67,5.37l-29.4,16.98c-2.75,1.59-6.91,1.76-9.3,.39Z"/>
          <path class="cls-8" d="M965.71,711.08l-29.67-17.13c-2.38-1.38-2.08-3.78,.67-5.37l29.4-16.98c2.75-1.59,6.91-1.76,9.3-.38l29.67,17.13c2.38,1.38,2.08,3.78-.67,5.37l-29.4,16.98c-2.75,1.59-6.91,1.76-9.3,.39Z"/>
          <path class="cls-8" d="M920.11,684.76l-29.67-17.13c-2.38-1.38-2.08-3.78,.67-5.37l29.4-16.98c2.75-1.59,6.91-1.76,9.3-.38l29.67,17.13c2.38,1.38,2.08,3.78-.67,5.37l-29.4,16.98c-2.75,1.59-6.91,1.76-9.3,.39Z"/>
          <path class="cls-8" d="M874.51,658.43l-29.68-17.13c-2.38-1.38-2.08-3.78,.67-5.37l29.4-16.98c2.75-1.59,6.91-1.76,9.3-.38l29.67,17.13c2.38,1.38,2.08,3.78-.67,5.37l-29.4,16.98c-2.75,1.59-6.91,1.76-9.3,.39Z"/>
          <path class="cls-8" d="M921.4,631.36l-29.67-17.13c-2.38-1.38-2.08-3.78,.67-5.37l9.72-5.61c2.75-1.59,6.91-1.76,9.3-.39l29.67,17.13c2.38,1.38,2.08,3.78-.67,5.37l-9.72,5.61c-2.75,1.59-6.91,1.76-9.3,.38Z"/>
          <path class="cls-8" d="M980.91,665.72l-29.67-17.13c-2.38-1.38-2.08-3.78,.67-5.37l9.72-5.61c2.75-1.59,6.91-1.76,9.3-.39l29.67,17.13c2.38,1.38,2.08,3.78-.67,5.37l-9.72,5.61c-2.75,1.59-6.91,1.76-9.3,.39Z"/>
          <path class="cls-8" d="M1026.32,691.93l-29.67-17.13c-2.38-1.38-2.08-3.78,.67-5.37l9.72-5.61c2.75-1.59,6.91-1.76,9.3-.39l29.67,17.13c2.38,1.38,2.08,3.78-.67,5.37l-9.72,5.61c-2.75,1.59-6.91,1.76-9.3,.38Z"/>
          <path class="cls-8" d="M1071.73,718.15l-29.67-17.13c-2.38-1.38-2.08-3.78,.67-5.37l9.72-5.61c2.75-1.59,6.91-1.76,9.3-.39l29.67,17.13c2.38,1.38,2.08,3.78-.67,5.37l-9.72,5.61c-2.75,1.59-6.91,1.76-9.3,.39Z"/>
          <path class="cls-8" d="M1117.14,744.37l-29.67-17.13c-2.38-1.38-2.08-3.78,.67-5.37l9.72-5.61c2.75-1.59,6.91-1.76,9.3-.39l29.67,17.13c2.38,1.38,2.08,3.78-.67,5.37l-9.72,5.61c-2.75,1.59-6.91,1.76-9.3,.38Z"/>
          <path class="cls-8" d="M1370.65,890.73l-29.68-17.13c-2.38-1.38-2.08-3.78,.67-5.37l9.72-5.61c2.75-1.59,6.91-1.76,9.3-.39l29.68,17.13c2.38,1.38,2.08,3.78-.67,5.37l-9.72,5.61c-2.75,1.59-6.91,1.76-9.3,.39Z"/>
          <path class="cls-8" d="M1416.06,916.95l-29.67-17.13c-2.38-1.38-2.08-3.78,.67-5.37l9.72-5.61c2.75-1.59,6.91-1.76,9.3-.39l29.67,17.13c2.38,1.38,2.08,3.78-.67,5.37l-9.72,5.61c-2.75,1.59-6.91,1.76-9.3,.39Z"/>
          <path class="cls-8" d="M1461.47,943.17l-29.67-17.13c-2.38-1.38-2.08-3.78,.67-5.37l9.72-5.61c2.75-1.59,6.91-1.76,9.3-.39l29.67,17.13c2.38,1.38,2.08,3.78-.67,5.37l-9.72,5.61c-2.75,1.59-6.91,1.76-9.3,.39Z"/>
          <path class="cls-8" d="M1506.88,969.38l-29.67-17.13c-2.38-1.38-2.08-3.78,.67-5.37l9.72-5.61c2.75-1.59,6.91-1.76,9.3-.39l29.67,17.13c2.38,1.38,2.08,3.78-.67,5.37l-9.72,5.61c-2.75,1.59-6.91,1.76-9.3,.39Z"/>
          <path class="cls-8" d="M1057.14,763.87l-29.67-17.13c-2.38-1.38-2.08-3.78,.67-5.37l29.4-16.98c2.75-1.59,6.91-1.76,9.3-.39l29.68,17.13c2.38,1.38,2.08,3.78-.67,5.37l-29.4,16.98c-2.75,1.59-6.91,1.76-9.3,.38Z"/>
          <path class="cls-8" d="M1102.97,790.33l-29.67-17.13c-2.38-1.38-2.08-3.78,.67-5.37l29.4-16.98c2.75-1.59,6.91-1.76,9.3-.39l29.67,17.13c2.38,1.38,2.08,3.78-.67,5.37l-29.4,16.98c-2.75,1.59-6.91,1.76-9.3,.38Z"/>
          <path class="cls-8" d="M1148.79,816.79l-29.67-17.13c-2.38-1.38-2.08-3.78,.67-5.37l29.4-16.98c2.75-1.59,6.91-1.76,9.3-.39l29.67,17.13c2.38,1.38,2.08,3.78-.67,5.37l-29.4,16.98c-2.75,1.59-6.91,1.76-9.3,.39Z"/>
          <path class="cls-8" d="M1194.62,843.24l-29.67-17.13c-2.38-1.38-2.08-3.78,.67-5.37l29.4-16.98c2.75-1.59,6.91-1.76,9.3-.39l29.68,17.13c2.38,1.38,2.08,3.78-.67,5.37l-29.4,16.98c-2.75,1.59-6.91,1.76-9.3,.39Z"/>
          <path class="cls-8" d="M1240.45,869.7l-29.67-17.13c-2.38-1.38-2.08-3.78,.67-5.37l29.4-16.98c2.75-1.59,6.91-1.76,9.3-.39l29.67,17.13c2.38,1.38,2.08,3.78-.67,5.37l-29.4,16.98c-2.75,1.59-6.91,1.76-9.3,.39Z"/>
          <path class="cls-8" d="M1286.27,896.16l-29.67-17.13c-2.38-1.38-2.08-3.78,.67-5.37l29.4-16.98c2.75-1.59,6.91-1.76,9.3-.38l29.67,17.13c2.38,1.38,2.08,3.78-.67,5.37l-29.4,16.98c-2.75,1.59-6.91,1.76-9.3,.39Z"/>
          <path class="cls-8" d="M1332.1,922.62l-29.67-17.13c-2.38-1.38-2.08-3.78,.67-5.37l29.4-16.98c2.75-1.59,6.91-1.76,9.3-.38l29.68,17.13c2.38,1.38,2.08,3.78-.67,5.37l-29.4,16.98c-2.75,1.59-6.91,1.76-9.3,.39Z"/>
          <path class="cls-8" d="M1377.93,949.08l-29.67-17.13c-2.38-1.38-2.08-3.78,.67-5.37l29.4-16.98c2.75-1.59,6.91-1.76,9.3-.39l29.67,17.13c2.38,1.38,2.08,3.78-.67,5.37l-29.4,16.98c-2.75,1.59-6.91,1.76-9.3,.38Z"/>
          <path class="cls-8" d="M1423.76,975.54l-29.67-17.13c-2.38-1.38-2.08-3.78,.67-5.37l29.4-16.98c2.75-1.59,6.91-1.76,9.3-.39l29.67,17.13c2.38,1.38,2.08,3.78-.67,5.37l-29.4,16.98c-2.75,1.59-6.91,1.76-9.3,.39Z"/>
          <path class="cls-8" d="M795.14,767.14l-87.4-50.46c-2.38-1.38-2.08-3.78,.67-5.37l29.4-16.98c2.75-1.59,6.91-1.76,9.3-.39l87.4,50.46c2.38,1.38,2.08,3.78-.67,5.37l-29.4,16.98c-2.75,1.59-6.91,1.76-9.3,.38Z"/>
          <path class="cls-8" d="M1358.14,1092.18l-87.4-50.46c-2.38-1.38-2.08-3.78,.67-5.37l29.4-16.98c2.75-1.59,6.91-1.76,9.3-.39l87.4,50.46c2.38,1.38,2.08,3.78-.67,5.37l-29.4,16.98c-2.75,1.59-6.91,1.76-9.3,.38Z"/>
          <path class="cls-8" d="M1174.87,1044.82l-29.67-17.13c-2.38-1.38-2.08-3.78,.67-5.37l35.03-20.22c2.75-1.59,6.91-1.76,9.3-.38l29.67,17.13c2.38,1.38,2.08,3.78-.67,5.37l-35.03,20.22c-2.75,1.59-6.91,1.76-9.3,.38Z"/>
          <path class="cls-8" d="M842.07,852.67l-47.46-27.4c-2.38-1.38-2.08-3.78,.67-5.37l35.03-20.22c2.75-1.59,6.91-1.76,9.3-.38l47.46,27.4c2.38,1.38,2.08,3.78-.67,5.37l-35.03,20.22c-2.75,1.59-6.91,1.76-9.3,.38Z"/>
          <path class="cls-8" d="M1130.71,1019.32l-47.46-27.4c-2.38-1.38-2.08-3.78,.67-5.37l35.03-20.22c2.75-1.59,6.91-1.76,9.3-.39l47.46,27.4c2.38,1.38,2.08,3.78-.67,5.37l-35.03,20.22c-2.75,1.59-6.91,1.76-9.3,.39Z"/>
          <path class="cls-8" d="M908.19,890.85l-47.46-27.4c-2.38-1.38-2.08-3.78,.67-5.37l35.03-20.22c2.75-1.59,6.91-1.76,9.3-.38l47.46,27.4c2.38,1.38,2.08,3.78-.67,5.37l-35.03,20.22c-2.75,1.59-6.91,1.76-9.3,.38Z"/>
          <path class="cls-8" d="M906.04,837.66l206.34,119.13c2.56,1.48,2.56,3.87,0,5.35l-35.72,20.62c-2.56,1.48-6.71,1.48-9.27,0l-206.34-119.13,44.99-25.97Z"/>
          <path class="cls-8" d="M1302.95,1092.79l33.05,19.08c1.95,1.13,1.71,3.1-.55,4.4l-14.33,8.27c-2.26,1.3-5.67,1.44-7.62,.32l-33.05-19.08c-1.95-1.13-1.71-3.1,.55-4.4l14.33-8.27c2.26-1.3,5.67-1.44,7.62-.32Z"/>
          <path class="cls-8" d="M1256.74,1066.11l33.05,19.08c1.95,1.13,1.71,3.1-.55,4.4l-14.33,8.27c-2.26,1.3-5.67,1.44-7.62,.32l-33.05-19.08c-1.95-1.13-1.71-3.1,.55-4.4l14.33-8.27c2.26-1.3,5.67-1.44,7.62-.32Z"/>
          <path class="cls-8" d="M1210.91,1039.65l33.06,19.08c1.95,1.13,1.71,3.1-.55,4.4l-14.33,8.27c-2.26,1.3-5.67,1.44-7.62,.32l-33.06-19.08c-1.95-1.13-1.71-3.1,.55-4.4l14.33-8.27c2.26-1.3,5.67-1.44,7.62-.32Z"/>
          <path class="cls-8" d="M1282.05,1051.5l33.05,19.08c1.95,1.13,1.71,3.1-.55,4.4l-14.33,8.27c-2.26,1.3-5.67,1.44-7.62,.32l-33.05-19.08c-1.95-1.13-1.71-3.1,.55-4.4l14.33-8.27c2.26-1.3,5.67-1.44,7.62-.32Z"/>
        </g>
        <g>
          <polygon class="cls-16" points="1463.07 535.23 1216.22 392.71 1219.4 376.66 1466.24 519.18 1463.07 535.23"/>
          <polygon class="cls-16" points="1374.66 562.31 1202.35 462.82 1205.52 446.77 1377.83 546.26 1374.66 562.31"/>
          <polygon class="cls-2" points="1358.35 513.83 1209.28 427.76 1212.46 411.72 1361.53 497.78 1358.35 513.83"/>
          <polygon class="cls-3" points="1456.13 570.28 1381.6 527.25 1384.77 511.2 1459.31 554.23 1456.13 570.28"/>
          <polygon class="cls-16" points="1189.93 252.7 1115.4 209.67 1118.57 193.62 1193.11 236.65 1189.93 252.7"/>
          <polygon class="cls-2" points="1181.84 289.99 1107.31 246.96 1110.48 230.91 1185.02 273.95 1181.84 289.99"/>
          <polygon class="cls-16" points="1547.67 807.28 1473.14 764.25 1476.31 748.2 1550.85 791.23 1547.67 807.28"/>
          <polygon class="cls-16" points="1165.67 364.58 1091.13 321.55 1094.31 305.5 1168.84 348.53 1165.67 364.58"/>
        </g>
        <g>
          <path class="cls-3" d="M1326.71,376.14c-2.38,5.18-8.38,7.03-13.4,4.13-5.03-2.9-7.17-9.45-4.8-14.64,2.38-5.18,8.38-7.03,13.4-4.13,5.03,2.9,7.18,9.45,4.8,14.64Z"/>
          <path class="cls-2" d="M1358.82,394.67c-2.38,5.18-8.38,7.03-13.4,4.13-5.03-2.9-7.17-9.45-4.8-14.64,2.37-5.18,8.37-7.03,13.4-4.13,5.03,2.9,7.18,9.45,4.8,14.64Z"/>
          <path class="cls-16" d="M1390.92,413.21c-2.38,5.18-8.38,7.03-13.4,4.13-5.03-2.9-7.17-9.45-4.8-14.64,2.38-5.18,8.37-7.03,13.4-4.13,5.03,2.9,7.17,9.45,4.8,14.64Z"/>
          <path class="cls-3" d="M1423.03,431.74c-2.38,5.18-8.38,7.03-13.4,4.13-5.03-2.9-7.17-9.45-4.8-14.64,2.38-5.18,8.38-7.03,13.4-4.13,5.03,2.9,7.17,9.45,4.8,14.64Z"/>
        </g>
        <path class="cls-2" d="M889.4,1099.73l-204.62-118.14c-5.96-3.44-5.21-9.45,1.67-13.42l123.48-71.29c6.88-3.97,17.28-4.4,23.24-.96l204.62,118.14c5.96,3.44,5.21,9.45-1.67,13.42l-123.48,71.29c-6.88,3.97-17.28,4.4-23.24,.96Z"/>
      </g>
      <g class="cls-11">
        <g class="cls-13">
          <g>
            <g>
              <g>
                <path class="cls-16" d="M1333.48,567.66c14.1,8.14,14.1,21.38,0,29.52l-239.61,138.34c-3.87,2.24-10.16,2.24-14.04,0-3.87-2.24-3.87-5.87,0-8.1l239.61-138.34c6.36-3.67,6.36-9.64,0-13.31l-23.22-13.4c2.58-3.88,4.92-7.92,7.21-12.04l30.04,17.34Z"/>
                <path class="cls-8" d="M994.12,677.93l239.61-138.34c14.1-8.14,37.03-8.14,51.13,0l18.58,10.73c-2.29,4.12-4.63,8.16-7.21,12.04l-25.4-14.67c-6.36-3.67-16.7-3.67-23.06,0l-239.61,138.34c-3.87,2.24-10.16,2.24-14.04,0-3.87-2.24-3.87-5.87,0-8.1Z"/>
              </g>
              <polygon class="cls-8" points="991.24 682.27 991.22 345.34 1242.31 205.37 1277.43 203.05 1311.38 225.05 1332.22 243.18 1087.58 631.13 1007.7 678.21 991.24 682.27"/>
              <polygon class="cls-15" points="1084.1 724.82 1009.05 681.49 1009.05 355.87 1086.42 391.83 1084.1 724.82"/>
              <polygon class="cls-16" points="1344.04 245.79 1344.04 582.17 1080.45 732.94 1076.93 731.53 1076.93 394.66 1344.04 245.79"/>
              <path class="cls-2" d="M1195.79,248.57l52.39-30.1c6.4-2.96,15.75-2.77,21.68,.65l48.62,28.07c3.77,2.17,5.28,5.16,4.59,7.99l-132.38,79.1-106.33,65.27-75.31-43.68,186.74-107.29Z"/>
              <path class="cls-8" d="M1086.42,389.38v347.8c-2.39-.06-4.76-.6-6.58-1.65-1.9-1.1-2.86-2.54-2.89-3.98h-.01V394.66l9.49-5.29Z"/>
              <polygon class="cls-2" points="991.22 349.54 991.22 345.34 992.56 345.34 992.96 348.2 991.22 349.54"/>
              <polygon class="cls-2" points="1076.94 399.03 1076.94 394.72 1078.23 396.55 1076.94 399.03"/>
              <path class="cls-16" d="M1093.87,398.65l239.61-138.34c14.1-8.14,14.1-21.38,0-29.52l-48.62-28.07c-14.1-8.14-37.03-8.14-51.13,0l-239.61,138.34c-3.87,2.24-3.87,5.87,0,8.1,3.87,2.24,10.16,2.24,14.04,0l239.61-138.34c6.36-3.67,16.7-3.67,23.06,0l48.62,28.07c6.36,3.67,6.36,9.64,0,13.31l-239.61,138.34c-3.87,2.24-3.88,5.87,0,8.1,3.87,2.24,10.16,2.24,14.04,0Z"/>
              <polygon class="cls-2" points="1156.32 558.13 1280.83 486.24 1280.83 361.42 1156.32 433.31 1156.32 558.13"/>
              <g>
                <path class="cls-2" d="M994.12,349.16c3.87,2.24,10.16,2.24,14.04,0l239.61-138.34c6.36-3.67,16.7-3.67,23.06,0l48.62,28.07c4.16,2.4,5.58,5.79,4.29,8.87-.68-1.63-2.1-3.17-4.29-4.44l-48.62-28.07c-6.36-3.67-16.7-3.67-23.06,0l-239.61,138.34c-3.87,2.24-10.16,2.24-14.04,0-2.94-1.7-3.64-4.19-2.12-6.27,.48,.67,1.18,1.29,2.12,1.83Z"/>
                <path class="cls-2" d="M1079.84,398.65c3.87,2.24,10.16,2.24,14.04,0l239.61-138.34c6.07-3.5,9.51-7.96,10.35-12.54,1.11,6.06-2.33,12.35-10.35,16.98l-239.61,138.34c-3.87,2.24-10.16,2.24-14.04,0-2.94-1.7-3.64-4.19-2.12-6.27,.48,.67,1.18,1.29,2.12,1.83Z"/>
              </g>
            </g>
            <g>
              <g>
                <path class="cls-3" d="M1443.64,632.88c14.1,8.14,14.1,21.38,0,29.52l-239.61,138.34c-3.87,2.24-10.16,2.24-14.04,0-3.87-2.24-3.87-5.87,0-8.1l239.61-138.34c6.36-3.67,6.36-9.64,0-13.31l-23.22-13.4c2.58-3.88,4.92-7.92,7.21-12.04l30.04,17.34Z"/>
                <path class="cls-10" d="M1104.28,743.15l239.61-138.34c14.1-8.14,37.03-8.14,51.13,0l18.58,10.73c-2.29,4.12-4.63,8.16-7.21,12.04l-25.4-14.67c-6.36-3.67-16.7-3.67-23.06,0l-239.61,138.34c-3.87,2.24-10.16,2.24-14.04,0-3.87-2.24-3.87-5.87,0-8.1Z"/>
              </g>
              <polygon class="cls-10" points="1101.4 747.48 1101.37 410.56 1352.47 270.58 1387.58 268.27 1421.54 290.26 1442.38 308.4 1197.73 696.35 1117.86 743.43 1101.4 747.48"/>
              <polygon class="cls-5" points="1194.26 790.04 1119.21 746.71 1119.21 421.09 1196.58 457.05 1194.26 790.04"/>
              <polygon class="cls-3" points="1454.2 311.01 1454.2 647.38 1190.61 798.16 1187.09 796.75 1187.09 459.88 1454.2 311.01"/>
              <path class="cls-2" d="M1305.95,313.79l52.39-30.1c6.4-2.96,15.75-2.77,21.68,.65l48.62,28.07c3.77,2.18,5.28,5.16,4.59,7.99l-132.38,79.1-106.33,65.27-75.31-43.68,186.74-107.29Z"/>
              <path class="cls-10" d="M1196.58,454.59v347.8c-2.39-.06-4.76-.6-6.58-1.65-1.9-1.1-2.86-2.54-2.89-3.98h-.01V459.88l9.49-5.29Z"/>
              <polygon class="cls-2" points="1101.37 414.76 1101.37 410.56 1102.71 410.56 1103.12 413.41 1101.37 414.76"/>
              <polygon class="cls-2" points="1187.1 464.25 1187.1 459.94 1188.39 461.77 1187.1 464.25"/>
              <path class="cls-3" d="M1204.03,463.87l239.61-138.34c14.1-8.14,14.1-21.38,0-29.52l-48.62-28.07c-14.1-8.14-37.03-8.14-51.13,0l-239.61,138.34c-3.87,2.24-3.87,5.87,0,8.1,3.87,2.24,10.16,2.24,14.04,0l239.61-138.34c6.36-3.67,16.7-3.67,23.06,0l48.62,28.07c6.36,3.67,6.36,9.64,0,13.31l-239.61,138.34c-3.87,2.24-3.88,5.87,0,8.1,3.88,2.24,10.16,2.24,14.04,0Z"/>
              <polygon class="cls-2" points="1266.47 623.35 1390.98 551.46 1390.98 426.64 1266.47 498.53 1266.47 623.35"/>
              <g>
                <path class="cls-2" d="M1104.28,414.38c3.87,2.24,10.16,2.24,14.04,0l239.61-138.34c6.36-3.67,16.7-3.67,23.06,0l48.62,28.07c4.16,2.4,5.58,5.79,4.29,8.87-.68-1.63-2.1-3.17-4.29-4.44l-48.62-28.07c-6.36-3.67-16.7-3.67-23.06,0l-239.61,138.34c-3.87,2.24-10.16,2.24-14.04,0-2.94-1.7-3.64-4.19-2.12-6.27,.48,.67,1.18,1.29,2.12,1.83Z"/>
                <path class="cls-2" d="M1189.99,463.87c3.88,2.24,10.16,2.24,14.04,0l239.61-138.34c6.07-3.5,9.51-7.96,10.35-12.54,1.11,6.06-2.33,12.35-10.35,16.98l-239.61,138.34c-3.87,2.24-10.16,2.24-14.04,0-2.94-1.69-3.64-4.19-2.12-6.27,.48,.67,1.18,1.29,2.12,1.83Z"/>
              </g>
            </g>
            <g>
              <g>
                <path class="cls-16" d="M1556.83,702.58c14.1,8.14,14.1,21.38,0,29.52l-239.61,138.34c-3.88,2.24-10.16,2.24-14.04,0-3.87-2.24-3.87-5.87,0-8.1l239.61-138.34c6.36-3.67,6.36-9.64,0-13.31l-23.22-13.4c2.58-3.88,4.92-7.92,7.21-12.04l30.04,17.34Z"/>
                <path class="cls-8" d="M1217.47,812.85l239.61-138.34c14.1-8.14,37.03-8.14,51.13,0l18.58,10.73c-2.29,4.12-4.63,8.16-7.21,12.04l-25.4-14.67c-6.36-3.67-16.7-3.67-23.06,0l-239.61,138.34c-3.87,2.24-10.16,2.24-14.04,0-3.87-2.24-3.87-5.87,0-8.1Z"/>
              </g>
              <polygon class="cls-8" points="1214.59 817.19 1214.57 480.26 1465.66 340.29 1500.78 337.97 1534.73 359.97 1555.57 378.1 1310.93 766.05 1231.05 813.13 1214.59 817.19"/>
              <polygon class="cls-15" points="1307.45 859.74 1232.4 816.41 1232.4 490.79 1309.77 526.75 1307.45 859.74"/>
              <polygon class="cls-16" points="1567.39 380.71 1567.39 717.08 1303.8 867.86 1300.28 866.45 1300.28 529.58 1567.39 380.71"/>
              <path class="cls-2" d="M1419.14,383.49l52.39-30.1c6.4-2.96,15.75-2.77,21.68,.65l48.62,28.07c3.77,2.18,5.28,5.16,4.59,7.99l-132.38,79.1-106.33,65.27-75.31-43.68,186.74-107.29Z"/>
              <path class="cls-8" d="M1309.77,524.29v347.8c-2.39-.06-4.76-.6-6.58-1.65-1.9-1.1-2.86-2.54-2.89-3.98h-.01v-336.88l9.49-5.29Z"/>
              <polygon class="cls-2" points="1214.57 484.46 1214.57 480.26 1215.91 480.26 1216.31 483.11 1214.57 484.46"/>
              <polygon class="cls-2" points="1300.29 533.95 1300.29 529.64 1301.58 531.47 1300.29 533.95"/>
              <path class="cls-16" d="M1317.22,533.57l239.61-138.34c14.1-8.14,14.1-21.38,0-29.52l-48.62-28.07c-14.1-8.14-37.03-8.14-51.13,0l-239.61,138.34c-3.87,2.24-3.87,5.87,0,8.1,3.87,2.24,10.16,2.24,14.04,0l239.61-138.34c6.36-3.67,16.7-3.67,23.06,0l48.62,28.07c6.36,3.67,6.36,9.64,0,13.31l-239.61,138.34c-3.88,2.24-3.88,5.87,0,8.1,3.87,2.24,10.16,2.24,14.04,0Z"/>
              <polygon class="cls-2" points="1379.67 693.05 1504.18 621.16 1504.18 496.34 1379.67 568.23 1379.67 693.05"/>
              <g>
                <path class="cls-2" d="M1217.47,484.08c3.87,2.24,10.16,2.24,14.04,0l239.61-138.34c6.36-3.67,16.7-3.67,23.06,0l48.62,28.07c4.16,2.4,5.58,5.79,4.29,8.87-.68-1.63-2.1-3.17-4.29-4.44l-48.62-28.07c-6.36-3.67-16.7-3.67-23.06,0l-239.61,138.34c-3.87,2.24-10.16,2.24-14.04,0-2.94-1.7-3.64-4.19-2.12-6.27,.48,.67,1.18,1.29,2.12,1.83Z"/>
                <path class="cls-2" d="M1303.19,533.57c3.87,2.24,10.16,2.24,14.04,0l239.61-138.34c6.07-3.5,9.51-7.96,10.35-12.54,1.11,6.06-2.33,12.35-10.35,16.98l-239.61,138.34c-3.88,2.24-10.16,2.24-14.04,0-2.94-1.69-3.64-4.19-2.12-6.27,.48,.67,1.18,1.29,2.12,1.83Z"/>
              </g>
            </g>
          </g>
        </g>
      </g>
      <g class="cls-9">
        <g>
          <g>
            <g>
              <path class="cls-16" d="M1333.48,567.66c14.1,8.14,14.1,21.38,0,29.52l-239.61,138.34c-3.87,2.24-10.16,2.24-14.04,0-3.87-2.24-3.87-5.87,0-8.1l239.61-138.34c6.36-3.67,6.36-9.64,0-13.31l-23.22-13.4c2.58-3.88,4.92-7.92,7.21-12.04l30.04,17.34Z"/>
              <path class="cls-8" d="M994.12,677.93l239.61-138.34c14.1-8.14,37.03-8.14,51.13,0l18.58,10.73c-2.29,4.12-4.63,8.16-7.21,12.04l-25.4-14.67c-6.36-3.67-16.7-3.67-23.06,0l-239.61,138.34c-3.87,2.24-10.16,2.24-14.04,0-3.87-2.24-3.87-5.87,0-8.1Z"/>
            </g>
            <polygon class="cls-8" points="991.24 682.27 991.22 345.34 1242.31 205.37 1277.43 203.05 1311.38 225.05 1332.22 243.18 1087.58 631.13 1007.7 678.21 991.24 682.27"/>
            <polygon class="cls-15" points="1084.1 724.82 1009.05 681.49 1009.05 355.87 1086.42 391.83 1084.1 724.82"/>
            <polygon class="cls-16" points="1344.04 245.79 1344.04 582.17 1080.45 732.94 1076.93 731.53 1076.93 394.66 1344.04 245.79"/>
            <path class="cls-2" d="M1195.79,248.57l52.39-30.1c6.4-2.96,15.75-2.77,21.68,.65l48.62,28.07c3.77,2.17,5.28,5.16,4.59,7.99l-132.38,79.1-106.33,65.27-75.31-43.68,186.74-107.29Z"/>
            <path class="cls-8" d="M1086.42,389.38v347.8c-2.39-.06-4.76-.6-6.58-1.65-1.9-1.1-2.86-2.54-2.89-3.98h-.01V394.66l9.49-5.29Z"/>
            <polygon class="cls-2" points="991.22 349.54 991.22 345.34 992.56 345.34 992.96 348.2 991.22 349.54"/>
            <polygon class="cls-2" points="1076.94 399.03 1076.94 394.72 1078.23 396.55 1076.94 399.03"/>
            <path class="cls-16" d="M1093.87,398.65l239.61-138.34c14.1-8.14,14.1-21.38,0-29.52l-48.62-28.07c-14.1-8.14-37.03-8.14-51.13,0l-239.61,138.34c-3.87,2.24-3.87,5.87,0,8.1,3.87,2.24,10.16,2.24,14.04,0l239.61-138.34c6.36-3.67,16.7-3.67,23.06,0l48.62,28.07c6.36,3.67,6.36,9.64,0,13.31l-239.61,138.34c-3.87,2.24-3.88,5.87,0,8.1,3.87,2.24,10.16,2.24,14.04,0Z"/>
            <polygon class="cls-2" points="1156.32 558.13 1280.83 486.24 1280.83 361.42 1156.32 433.31 1156.32 558.13"/>
            <g>
              <path class="cls-2" d="M994.12,349.16c3.87,2.24,10.16,2.24,14.04,0l239.61-138.34c6.36-3.67,16.7-3.67,23.06,0l48.62,28.07c4.16,2.4,5.58,5.79,4.29,8.87-.68-1.63-2.1-3.17-4.29-4.44l-48.62-28.07c-6.36-3.67-16.7-3.67-23.06,0l-239.61,138.34c-3.87,2.24-10.16,2.24-14.04,0-2.94-1.7-3.64-4.19-2.12-6.27,.48,.67,1.18,1.29,2.12,1.83Z"/>
              <path class="cls-2" d="M1079.84,398.65c3.87,2.24,10.16,2.24,14.04,0l239.61-138.34c6.07-3.5,9.51-7.96,10.35-12.54,1.11,6.06-2.33,12.35-10.35,16.98l-239.61,138.34c-3.87,2.24-10.16,2.24-14.04,0-2.94-1.7-3.64-4.19-2.12-6.27,.48,.67,1.18,1.29,2.12,1.83Z"/>
            </g>
          </g>
          <g>
            <g>
              <path class="cls-3" d="M1443.64,632.88c14.1,8.14,14.1,21.38,0,29.52l-239.61,138.34c-3.87,2.24-10.16,2.24-14.04,0-3.87-2.24-3.87-5.87,0-8.1l239.61-138.34c6.36-3.67,6.36-9.64,0-13.31l-23.22-13.4c2.58-3.88,4.92-7.92,7.21-12.04l30.04,17.34Z"/>
              <path class="cls-10" d="M1104.28,743.15l239.61-138.34c14.1-8.14,37.03-8.14,51.13,0l18.58,10.73c-2.29,4.12-4.63,8.16-7.21,12.04l-25.4-14.67c-6.36-3.67-16.7-3.67-23.06,0l-239.61,138.34c-3.87,2.24-10.16,2.24-14.04,0-3.87-2.24-3.87-5.87,0-8.1Z"/>
            </g>
            <polygon class="cls-10" points="1101.4 747.48 1101.37 410.56 1352.47 270.58 1387.58 268.27 1421.54 290.26 1442.38 308.4 1197.73 696.35 1117.86 743.43 1101.4 747.48"/>
            <polygon class="cls-5" points="1194.26 790.04 1119.21 746.71 1119.21 421.09 1196.58 457.05 1194.26 790.04"/>
            <polygon class="cls-3" points="1454.2 311.01 1454.2 647.38 1190.61 798.16 1187.09 796.75 1187.09 459.88 1454.2 311.01"/>
            <path class="cls-2" d="M1305.95,313.79l52.39-30.1c6.4-2.96,15.75-2.77,21.68,.65l48.62,28.07c3.77,2.18,5.28,5.16,4.59,7.99l-132.38,79.1-106.33,65.27-75.31-43.68,186.74-107.29Z"/>
            <path class="cls-10" d="M1196.58,454.59v347.8c-2.39-.06-4.76-.6-6.58-1.65-1.9-1.1-2.86-2.54-2.89-3.98h-.01V459.88l9.49-5.29Z"/>
            <polygon class="cls-2" points="1101.37 414.76 1101.37 410.56 1102.71 410.56 1103.12 413.41 1101.37 414.76"/>
            <polygon class="cls-2" points="1187.1 464.25 1187.1 459.94 1188.39 461.77 1187.1 464.25"/>
            <path class="cls-3" d="M1204.03,463.87l239.61-138.34c14.1-8.14,14.1-21.38,0-29.52l-48.62-28.07c-14.1-8.14-37.03-8.14-51.13,0l-239.61,138.34c-3.87,2.24-3.87,5.87,0,8.1,3.87,2.24,10.16,2.24,14.04,0l239.61-138.34c6.36-3.67,16.7-3.67,23.06,0l48.62,28.07c6.36,3.67,6.36,9.64,0,13.31l-239.61,138.34c-3.87,2.24-3.88,5.87,0,8.1,3.88,2.24,10.16,2.24,14.04,0Z"/>
            <polygon class="cls-2" points="1266.47 623.35 1390.98 551.46 1390.98 426.64 1266.47 498.53 1266.47 623.35"/>
            <g>
              <path class="cls-2" d="M1104.28,414.38c3.87,2.24,10.16,2.24,14.04,0l239.61-138.34c6.36-3.67,16.7-3.67,23.06,0l48.62,28.07c4.16,2.4,5.58,5.79,4.29,8.87-.68-1.63-2.1-3.17-4.29-4.44l-48.62-28.07c-6.36-3.67-16.7-3.67-23.06,0l-239.61,138.34c-3.87,2.24-10.16,2.24-14.04,0-2.94-1.7-3.64-4.19-2.12-6.27,.48,.67,1.18,1.29,2.12,1.83Z"/>
              <path class="cls-2" d="M1189.99,463.87c3.88,2.24,10.16,2.24,14.04,0l239.61-138.34c6.07-3.5,9.51-7.96,10.35-12.54,1.11,6.06-2.33,12.35-10.35,16.98l-239.61,138.34c-3.87,2.24-10.16,2.24-14.04,0-2.94-1.69-3.64-4.19-2.12-6.27,.48,.67,1.18,1.29,2.12,1.83Z"/>
            </g>
          </g>
          <g>
            <g>
              <path class="cls-16" d="M1556.83,702.58c14.1,8.14,14.1,21.38,0,29.52l-239.61,138.34c-3.88,2.24-10.16,2.24-14.04,0-3.87-2.24-3.87-5.87,0-8.1l239.61-138.34c6.36-3.67,6.36-9.64,0-13.31l-23.22-13.4c2.58-3.88,4.92-7.92,7.21-12.04l30.04,17.34Z"/>
              <path class="cls-8" d="M1217.47,812.85l239.61-138.34c14.1-8.14,37.03-8.14,51.13,0l18.58,10.73c-2.29,4.12-4.63,8.16-7.21,12.04l-25.4-14.67c-6.36-3.67-16.7-3.67-23.06,0l-239.61,138.34c-3.87,2.24-10.16,2.24-14.04,0-3.87-2.24-3.87-5.87,0-8.1Z"/>
            </g>
            <polygon class="cls-8" points="1214.59 817.19 1214.57 480.26 1465.66 340.29 1500.78 337.97 1534.73 359.97 1555.57 378.1 1310.93 766.05 1231.05 813.13 1214.59 817.19"/>
            <polygon class="cls-15" points="1307.45 859.74 1232.4 816.41 1232.4 490.79 1309.77 526.75 1307.45 859.74"/>
            <polygon class="cls-16" points="1567.39 380.71 1567.39 717.08 1303.8 867.86 1300.28 866.45 1300.28 529.58 1567.39 380.71"/>
            <path class="cls-2" d="M1419.14,383.49l52.39-30.1c6.4-2.96,15.75-2.77,21.68,.65l48.62,28.07c3.77,2.18,5.28,5.16,4.59,7.99l-132.38,79.1-106.33,65.27-75.31-43.68,186.74-107.29Z"/>
            <path class="cls-8" d="M1309.77,524.29v347.8c-2.39-.06-4.76-.6-6.58-1.65-1.9-1.1-2.86-2.54-2.89-3.98h-.01v-336.88l9.49-5.29Z"/>
            <polygon class="cls-2" points="1214.57 484.46 1214.57 480.26 1215.91 480.26 1216.31 483.11 1214.57 484.46"/>
            <polygon class="cls-2" points="1300.29 533.95 1300.29 529.64 1301.58 531.47 1300.29 533.95"/>
            <path class="cls-16" d="M1317.22,533.57l239.61-138.34c14.1-8.14,14.1-21.38,0-29.52l-48.62-28.07c-14.1-8.14-37.03-8.14-51.13,0l-239.61,138.34c-3.87,2.24-3.87,5.87,0,8.1,3.87,2.24,10.16,2.24,14.04,0l239.61-138.34c6.36-3.67,16.7-3.67,23.06,0l48.62,28.07c6.36,3.67,6.36,9.64,0,13.31l-239.61,138.34c-3.88,2.24-3.88,5.87,0,8.1,3.87,2.24,10.16,2.24,14.04,0Z"/>
            <polygon class="cls-2" points="1379.67 693.05 1504.18 621.16 1504.18 496.34 1379.67 568.23 1379.67 693.05"/>
            <g>
              <path class="cls-2" d="M1217.47,484.08c3.87,2.24,10.16,2.24,14.04,0l239.61-138.34c6.36-3.67,16.7-3.67,23.06,0l48.62,28.07c4.16,2.4,5.58,5.79,4.29,8.87-.68-1.63-2.1-3.17-4.29-4.44l-48.62-28.07c-6.36-3.67-16.7-3.67-23.06,0l-239.61,138.34c-3.87,2.24-10.16,2.24-14.04,0-2.94-1.7-3.64-4.19-2.12-6.27,.48,.67,1.18,1.29,2.12,1.83Z"/>
              <path class="cls-2" d="M1303.19,533.57c3.87,2.24,10.16,2.24,14.04,0l239.61-138.34c6.07-3.5,9.51-7.96,10.35-12.54,1.11,6.06-2.33,12.35-10.35,16.98l-239.61,138.34c-3.88,2.24-10.16,2.24-14.04,0-2.94-1.69-3.64-4.19-2.12-6.27,.48,.67,1.18,1.29,2.12,1.83Z"/>
            </g>
          </g>
        </g>
      </g>
      <g>
        <path class="cls-6" d="M1659.12,1243.53c-9.48-5.47-24.84-5.47-34.31,0l-442.56,255.61c-9.47,5.47-9.47,14.34,0,19.81,9.47,5.47,24.84,5.47,34.31,0l442.56-255.61c9.47-5.47,9.47-14.34,0-19.81Z"/>
        <g>
          <path class="cls-16" d="M1734.75,1105.07h0c-.42-.72-1.26-1.09-2.08-.91l-26.77,5.8,10.54,17.94,18.09-20.57c.55-.63,.64-1.54,.22-2.26Z"/>
          <g>
            <path class="cls-8" d="M1724.2,1118.3c-.03-3.86-2.78-8.54-6.14-10.44-1.55-.88-2.95-.99-4.02-.5-30.94-.25-61.36,7.89-88.03,23.57l-1.93,1.14,33.25,56.57,9.82-6.51c20.78-13.78,38.3-31.94,51.32-53.21l4.2-6.87c.95-.69,1.54-1.96,1.53-3.75Z"/>
            <path class="cls-16" d="M1664.01,1173.56c-.12-14.79-10.64-32.7-23.51-40-12.87-7.3-23.21-1.22-23.09,13.57,.12,14.79,10.64,32.7,23.51,40,12.87,7.3,23.21,1.22,23.09-13.57Z"/>
            <polygon class="cls-16" points="1459.98 1311.58 1657.33 1188.64 1624.08 1132.07 1420.69 1244.74 1459.98 1311.58"/>
            <path class="cls-16" d="M1467.87,1293.77c-.14-17.48-12.58-38.64-27.78-47.27-15.21-8.62-27.43-1.44-27.29,16.04,.14,17.48,12.58,38.64,27.78,47.27,15.21,8.62,27.43,1.44,27.29-16.04Z"/>
          </g>
          <g>
            <path class="cls-16" d="M1456.61,1300.39c-.14-17.48-12.58-38.64-27.78-47.27-15.21-8.62-27.43-1.44-27.29,16.04,.14,17.48,12.58,38.64,27.78,47.27,15.21,8.62,27.43,1.44,27.29-16.04Z"/>
            <rect class="cls-16" x="1147.1" y="1322.75" width="302.85" height="77.54" transform="translate(-510.86 845.77) rotate(-30.45)"/>
            <path class="cls-16" d="M1195.52,1453.86c-.14-17.48-12.58-38.64-27.78-47.27-15.21-8.62-27.43-1.44-27.29,16.04,.14,17.48,12.58,38.64,27.78,47.27,15.21,8.62,27.43,1.44,27.29-16.04Z"/>
            <path class="cls-1" d="M1185.67,1448.27c-.6-10.32-9-23.17-18.77-28.71-9.76-5.54-17.19-1.66-16.59,8.66,.6,10.32,9,23.17,18.77,28.71,9.76,5.54,17.19,1.66,16.59-8.66Z"/>
          </g>
          <g>
            <path class="cls-2" d="M1469.85,1292.61c-.14-17.48-12.58-38.64-27.78-47.26-6.13-3.47-11.75-4.34-16.29-3.05,4.94-5.16,13.03-5.77,22.25-.54,15.21,8.62,27.65,29.78,27.78,47.26,.08,10.44-4.26,17.17-11,19.09,3.21-3.35,5.09-8.61,5.04-15.5Z"/>
            <path class="cls-8" d="M1469.85,1292.61c-.14-17.48-12.58-38.64-27.78-47.27-7.6-4.31-14.46-4.67-19.4-1.77l-14.79,8.69,7.05,11.99c1.29,15.9,11.93,34,25.19,42.86l7.05,11.99,14.79-8.69h0c4.94-2.9,7.96-9.07,7.89-17.81Z"/>
            <path class="cls-16" d="M1455.06,1301.3c-.14-17.48-12.58-38.64-27.78-47.27-15.21-8.62-27.43-1.44-27.29,16.04,.14,17.48,12.58,38.64,27.78,47.27,15.21,8.62,27.43,1.44,27.29-16.04Z"/>
          </g>
          <g>
            <path class="cls-3" d="M1173.38,1456.03l-16.95-28.84-55.34,32.53c-7.96,4.68-10.62,14.93-5.94,22.9h0c4.68,7.96,14.93,10.62,22.9,5.94l55.34-32.53Z"/>
            <path class="cls-3" d="M1176.78,1448.35c-.06-7.54-5.43-16.67-11.99-20.39-6.56-3.72-11.83-.62-11.77,6.92,.06,7.54,5.43,16.67,11.99,20.39,6.56,3.72,11.83,.62,11.77-6.92Z"/>
          </g>
          <g>
            <path class="cls-8" d="M1238.29,1346.55l-8.3-4.71c-4.77-2.7-11.07-2.03-17.75,1.9l-28.44,16.72c-5.37,3.16-9.7,10.79-9.65,17.02l.11,14.23c.02,2.39-1.15,5.13-2.86,7.15l1.06,6.59-7.09-4.06h.02c-1.03-.53-1.68-1.72-1.69-3.47l-.11-14.23c-.1-12.98,8.92-28.9,20.12-35.48l28.44-16.72c9.5-5.58,18.47-6.54,25.25-2.7l8.29,4.71c4.77,2.7,11.07,2.03,17.75-1.9l114.63-67.38c1.48-.87,2.82-.94,3.79-.37h0s7.07,4.04,7.07,4.04l-6.06,2.33c-.84,2.55-2.62,5.02-4.71,6.25l-114.63,67.38c-9.5,5.59-18.47,6.54-25.25,2.7Z"/>
            <path class="cls-8" d="M1237.17,1345.95c-4.77-2.7-11.07-2.03-17.75,1.9l-28.44,16.72c-5.37,3.16-9.7,10.79-9.65,17.02l.11,14.23c.03,3.38-2.32,7.52-5.23,9.23-2.92,1.71-5.3,.36-5.33-3.02l-.11-14.23c-.1-12.98,8.92-28.9,20.11-35.48l28.44-16.72c9.5-5.58,18.47-6.54,25.25-2.7l8.3,4.71c4.77,2.7,11.07,2.03,17.75-1.9l114.63-67.38c2.92-1.71,5.3-.36,5.33,3.02,.03,3.38-2.32,7.52-5.23,9.23l-114.63,67.38c-9.5,5.59-18.47,6.54-25.25,2.7l-8.3-4.71Z"/>
            <path class="cls-2" d="M1180.98,1383.93l.11,14.23c0,.09-.04,.19-.04,.29,.26-.89,.41-1.79,.4-2.64l-.11-14.23c0-.4,.06-.83,.09-1.24-.27,1.22-.46,2.43-.45,3.59Z"/>
          </g>
        </g>
      </g>
      <g>
        <g>
          <ellipse class="cls-6" cx="1081.64" cy="1104.52" rx="90" ry="51.96"/>
          <path class="cls-3" d="M1184.04,1060.07v-28.75h-5.43c-4.87-8.39-12.99-16.29-24.56-22.97-39.99-23.09-104.82-23.09-144.81,0-11.57,6.68-19.69,14.58-24.56,22.97h-5.42v28.59h0c-.07,15.18,9.92,30.37,29.98,41.96,39.99,23.09,104.82,23.09,144.81,0,19.99-11.54,29.99-26.68,29.99-41.81Z"/>
          <ellipse class="cls-3" cx="1081.64" cy="1031.33" rx="102.39" ry="59.12"/>
          <path class="cls-2" d="M1154.05,1073.13c-39.99,23.09-104.82,23.09-144.81,0-19.16-11.06-29.04-25.42-29.84-39.92-.86,15.75,9.01,31.66,29.84,43.68,39.99,23.09,104.82,23.09,144.81,0,20.82-12.02,30.7-27.93,29.83-43.68-.79,14.5-10.67,28.86-29.83,39.92Z"/>
        </g>
        <path class="cls-2" d="M1032.29,1050.9c-1.72-.99-2.7-2.35-2.7-3.77l.1-38.52c0-2.94,4.14-5.31,9.23-5.31,5.09,0,9.2,2.39,9.2,5.33l-.09,31.94,92.69-11.35c4.98-.61,9.87,1.23,10.93,4.1,1.06,2.87-2.13,5.7-7.1,6.31l-103.84,12.72c-2.72,.33-5.56-.06-7.72-1.07-.25-.12-.48-.24-.71-.37Z"/>
      </g>
      <g>
        <g>
          <polygon class="cls-6" points="552.45 732.83 476.38 688.91 552.45 644.99 628.52 688.91 552.45 732.83"/>
          <polygon class="cls-10" points="628.53 633.15 552.45 677.07 552.45 589.23 628.53 545.31 628.53 633.15"/>
          <polygon class="cls-3" points="552.45 589.23 476.38 545.31 552.45 501.39 628.52 545.31 552.45 589.23"/>
          <polygon class="cls-3" points="552.45 677.07 476.38 633.15 476.38 545.31 552.45 589.23 552.45 677.07"/>
        </g>
        <polygon class="cls-2" points="525.06 629.61 503.78 617.33 503.78 592.76 525.06 605.05 525.06 629.61"/>
      </g>
      <g>
        <g>
          <polygon class="cls-6" points="79.2 1520.34 0 1474.61 79.2 1428.89 158.4 1474.61 79.2 1520.34"/>
          <polygon class="cls-7" points="158.4 1416.56 79.2 1462.28 79.2 1370.84 158.4 1325.11 158.4 1416.56"/>
          <polygon class="cls-16" points="79.2 1370.84 0 1325.11 79.2 1279.39 158.39 1325.11 79.2 1370.84"/>
          <polygon class="cls-8" points="79.2 1462.28 0 1416.56 0 1325.11 79.2 1370.84 79.2 1462.28"/>
        </g>
        <polygon class="cls-2" points="50.68 1412.88 28.52 1400.09 28.52 1374.51 50.68 1387.3 50.68 1412.88"/>
      </g>
      <path class="cls-6" d="M367.25,1413.63l-295.13-170.39c-6.63-3.83-6.63-13.4,0-17.23l280.62-162,313.97,181.27c6.63,3.83,6.63,13.4,0,17.23l-261.78,151.12c-11.66,6.73-26.03,6.73-37.69,0Z"/>
      <g>
        <g>
          <path class="cls-3" d="M358.73,945.87c.02-18.74-13.18-26.38-29.42-17.02L53.29,1087.88c-4.46,2.57-8.09,8.84-8.09,13.99,0,5.15,3.61,7.24,8.08,4.67l276.02-159.03c7.32-4.22,13.28-.78,13.27,7.68l-.03,30.87c5.36-.33,10.73-.34,16.16-.24l.04-39.94Z"/>
          <path class="cls-10" d="M53.17,1162.05l276.02-100.58c16.24-9.36,29.46-32.21,29.48-50.95l.02-24.7c-5.43-.09-10.8-.09-16.16,.24l-.03,33.77c0,8.45-5.97,18.76-13.3,22.98l-276.02,100.58c-4.46,2.57-8.09,8.84-8.09,13.99,0,5.15,3.61,7.24,8.08,4.67Z"/>
        </g>
        <polygon class="cls-10" points="47.18 1162.42 382.96 1356.71 667.24 1187.17 689.79 1153.51 687.45 1165.44 681.39 1134.21 153.69 1154.34 60.71 1148.35 47.18 1162.42"/>
        <polygon class="cls-5" points="58.32 1103.78 58.23 1145.12 382.75 1332.87 391.52 1293.47 58.32 1103.78"/>
        <polygon class="cls-3" points="685.61 1120.92 350.37 926.97 48.12 1102.74 47.49 1107.06 383.22 1301.29 685.61 1120.92"/>
        <path class="cls-2" d="M578.73,1220.52l78.82-46.76c6.64-4.67,11.85-14.1,11.85-21.98l.06-6.19c0-5.01-2.09-8.24-5.32-9.18l-155.16,86.32-126.36,68.34,.12,41.79,195.98-112.34Z"/>
        <path class="cls-10" d="M393.96,1294.89L60.85,1102.17l-7.06-4.09-6.45-3.73c-1.32,2.42-2.15,5.09-2.15,7.51,0,2.53,.88,4.31,2.3,5.18v.02s.06,.03,.06,.03h.02s335.65,194.21,335.65,194.21l10.74-6.41Z"/>
        <polygon class="cls-2" points="378.77 1354.29 382.96 1356.71 383.73 1355.37 381.12 1353.32 378.77 1354.29"/>
        <polygon class="cls-2" points="378.88 1298.77 383.17 1301.25 382.09 1298.91 378.88 1298.77"/>
        <path class="cls-3" d="M389.02,1282.11l276.02-159.03c16.24-9.36,29.44-1.72,29.42,17.02l-.06,6.19c-.02,18.74-13.24,41.6-29.48,50.96l-276.02,159.03c-4.46,2.57-8.08,.48-8.08-4.67,0-5.15,3.63-11.42,8.09-13.99l276.02-159.03c7.32-4.22,13.29-14.53,13.3-22.98l.06-6.19c0-8.45-5.94-11.9-13.27-7.68l-276.02,159.03c-4.46,2.57-8.08,.48-8.08-4.67,0-5.15,3.63-11.42,8.09-13.99Z"/>
        <g>
          <path class="cls-2" d="M380.82,1351.61c0-5.15,3.63-11.42,8.09-13.99l276.02-159.03c7.32-4.22,13.29-14.53,13.3-22.98l.06-6.19c0-5.53-2.55-8.9-6.37-9.4,1.23,1.61,1.95,3.92,1.95,6.84l-.06,6.19c0,8.45-5.97,18.76-13.3,22.98l-276.02,159.03c-4.46,2.57-8.09,8.84-8.09,13.99,0,3.9,2.08,6.04,5.03,5.73-.38-.87-.6-1.92-.6-3.17Z"/>
          <path class="cls-2" d="M380.92,1296.1c0-5.15,3.63-11.42,8.09-13.99l276.02-159.03c6.99-4.03,13.41-4.89,18.47-3.09-5.4-4.6-13.65-4.8-22.89,.53l-276.02,159.03c-4.46,2.57-8.09,8.84-8.09,13.99,0,3.9,2.08,6.04,5.03,5.73-.38-.87-.6-1.92-.6-3.17Z"/>
        </g>
        <polygon class="cls-2" points="253.26 1124.75 405.56 1037 537.64 1113.42 385.34 1201.16 253.26 1124.75"/>
      </g>
      <g>
        <path class="cls-6" d="M629.89,1549.13c60.97,35.2,159.82,35.2,220.79,0,60.97-35.2,60.97-92.27,0-127.47-60.97-35.2-159.82-35.2-220.79,0-60.97,35.2-60.97,92.27,0,127.47Zm59.65-93.03c28.03-16.18,73.46-16.18,101.49,0,28.03,16.18,28.02,42.42,0,58.6-28.03,16.18-73.47,16.18-101.49,0-28.03-16.18-28.02-42.42,0-58.6Z"/>
        <g>
          <g>
            <path class="cls-4" d="M873.71,1400.8l-55.69,.87c-4.12-5.36-9.97-10.39-17.59-14.79-30.63-17.68-78.78-19.05-112.15-4.12l-33.09-31.12-50.96,.79c2.52-1.65,5.1-3.27,7.83-4.85,70.81-40.88,185.62-40.89,256.44,0,13.02,7.52,23.63,15.9,31.86,24.82l-26.66,28.4Z"/>
            <polygon class="cls-10" points="604.24 1271.56 604.24 1352.43 655.19 1351.63 655.19 1270.76 604.24 1271.56"/>
            <polygon class="cls-4" points="688.29 1301.88 688.29 1382.76 655.19 1351.63 655.19 1270.76 688.29 1301.88"/>
            <path class="cls-4" d="M818.02,1320.8v80.87l-73.26-59.7-56.47,40.79v-80.87l52-25.23s71.59,21.91,75.31,22.84c3.72,.93,2.43,21.3,2.43,21.3Z"/>
            <polygon class="cls-4" points="873.71 1319.93 873.71 1400.8 818.02 1401.67 818.02 1320.8 873.71 1319.93"/>
            <polygon class="cls-10" points="900.37 1291.53 900.37 1372.4 873.71 1400.8 873.71 1319.93 900.37 1291.53"/>
            <path class="cls-3" d="M873.71,1319.93l-55.69,.87c-4.12-5.36-9.97-10.39-17.59-14.79-30.63-17.68-78.78-19.05-112.15-4.12l-33.09-31.12-50.96,.79c2.52-1.65,5.1-3.27,7.83-4.85,70.81-40.88,185.62-40.89,256.44,0,13.02,7.52,23.63,15.9,31.86,24.82l-26.66,28.4Z"/>
          </g>
          <g>
            <path class="cls-8" d="M671.51,1311.83v74.34l-48.21-11.55s2.83-43.5,3.86-44.67c1.03-1.16,44.35-18.13,44.35-18.13Z"/>
            <g>
              <path class="cls-7" d="M707.99,1386.18v80.87l-5.21,5.55-33.99-19.59s5.27-61.74,5.89-62.98c.62-1.24,33.3-3.85,33.3-3.85Z"/>
              <path class="cls-1" d="M642.37,1365.3l29.14,27.41c-24.28,19.21-21.41,46.29,8.63,63.63,8.23,4.75,17.72,8.32,27.85,10.72l-30.12,32.09,26.69,25.1c-33.89-3.91-66.22-13.44-92.5-28.61-60.87-35.15-69.36-89.05-25.57-129.47l55.88-.87Z"/>
              <polygon class="cls-1" points="704.56 1443.37 704.56 1524.24 638.47 1498.72 558.99 1422.89 559.29 1337.01 643.38 1403.67 704.56 1443.37"/>
              <path class="cls-16" d="M642.37,1284.42l29.14,27.41c-24.28,19.21-21.41,46.29,8.63,63.63,8.23,4.75,17.72,8.32,27.85,10.72l-30.12,32.09,26.69,25.1c-33.89-3.91-66.22-13.44-92.5-28.61-60.87-35.15-69.36-89.05-25.57-129.47l55.88-.87Z"/>
            </g>
          </g>
          <g>
            <path class="cls-1" d="M704.78,1498.72l26.55-28.29c24.65,1.5,50.21-3.2,69.1-14.1,19.51-11.27,27.55-26.64,24.14-41.3l63.23-.99,24.31-25.9c21.27,36.5,6.76,78.41-43.6,107.49-37,21.36-86.02,31.54-134.5,30.58l-29.23-27.49Z"/>
            <polygon class="cls-1" points="734.01 1445.34 734.01 1526.21 921.57 1422.27 921.57 1341.36 894.18 1352.43 734.01 1445.34"/>
            <polygon class="cls-7" points="704.78 1417.85 704.78 1498.72 734.01 1526.21 734.01 1445.34 704.78 1417.85"/>
            <path class="cls-8" d="M704.78,1417.85l26.55-28.29c24.65,1.5,50.21-3.2,69.1-14.1,19.51-11.26,27.55-26.64,24.14-41.3l63.23-.99,24.31-25.9c21.27,36.5,6.76,78.41-43.6,107.49-37,21.36-86.02,31.54-134.5,30.58l-29.23-27.49Z"/>
          </g>
        </g>
      </g>
    </g>
  </g>
</svg>