<?xml version="1.0" encoding="UTF-8"?>
<svg id="Capa_2" data-name="Capa 2" xmlns="http://www.w3.org/2000/svg" viewBox="0 0 705.16 446.41">
  <defs>
    <style>
      .cls-1 {
        fill: #fff;
      }
    </style>
  </defs>
  <g id="Capa_1-2" data-name="Capa 1">
    <g>
      <g>
        <path class="cls-1" d="M683.79,245.89c-8.25,1.68-13.96,9.3-13.96,17.72,0,23.47,0,87.64,0,122.18,0,12.57-10.19,22.73-22.75,22.73h-23.13c-4.7,0-8.5,3.81-8.5,8.5v18.31c0,4.7,3.81,8.5,8.5,8.5h23.13c32.08,0,58.08-26,58.08-58.08v-122.58c0-10.96-10.01-19.59-21.37-17.28Z"/>
        <path class="cls-1" d="M30.67,154.26c4.3,0,7.78-3.49,7.78-7.78V57.87c0-12.44,10.22-22.56,22.76-22.56H409.07c8.43,0,16.08-5.71,17.75-13.97,2.3-11.36-6.33-21.34-17.28-21.34H61.21C29.2,0,3.14,25.95,3.14,57.87v88.61c0,4.3,3.49,7.78,7.78,7.78H30.67Z"/>
      </g>
      <g>
        <path class="cls-1" d="M91.72,430.7c-6.47,9.25-18.12,15.16-34.76,15.16-34.58,0-56.95-26.07-56.95-61.95s26.07-62.32,65.46-62.32c29.96,0,47.34,11.83,47.34,27.55,0,13.5-17.38,18.12-18.49,16.83-6.29-8.13-16.09-12.76-26.63-12.76-17.01,0-30.33,12.94-30.33,32.54s12.02,32.36,28.66,32.36c12.95,0,21.64-5.92,23.49-15.72h-12.39c-11.65,0-17.38-2.77-17.38-12.76v-1.66c0-10.54,5.73-12.76,17.38-12.76h32.54c10.73,0,12.94,4.99,12.76,15.72v50.11c0,1.11-5.73,3.7-12.39,3.7-7.39,0-15.35-2.96-18.31-14.05Z"/>
        <path class="cls-1" d="M137.77,423.49v-78.78c0-13.31,6.66-20.53,18.86-20.53h63.61c11.83,0,17.2,5.92,17.2,15.53v.93c0,10.17-5.36,15.53-17.2,15.53h-45.49v12.02h30.33c12.2,0,17.2,5.18,17.2,14.24v.56c0,9.61-5.18,15.16-17.2,15.16h-30.33v13.87h46.41c11.65,0,17.01,4.99,17.01,14.61v.93c0,10.17-5.36,16.27-17.01,16.27h-64.54c-12.2,0-18.86-6.84-18.86-20.34Z"/>
        <path class="cls-1" d="M246.7,421.82c0-8.87,11.09-18.49,12.2-17.57,7.77,7.03,22.75,13.87,35.5,13.87,11.47,0,16.64-3.33,16.64-9.43,0-7.39-9.43-7.39-21.45-9.98-19.97-4.07-40.13-12.57-40.13-37.36s18.12-39.76,51.04-39.76,45.12,10.91,45.12,22.74c0,10.36-12.39,19.23-13.13,18.49-7.95-7.4-20.34-12.94-31.62-12.94s-16.09,3.33-16.09,9.25c0,7.03,9.61,6.47,22.19,9.25,23.48,5.18,41.42,15.35,41.42,37.35,0,26.07-17.94,40.68-54,40.68s-47.71-12.02-47.71-24.6Z"/>
        <path class="cls-1" d="M353.77,340.09v-.55c0-10.17,5.92-15.35,17.01-15.35h76.74c11.46,0,17.2,5.18,17.2,15.35v.55c0,10.54-5.73,16.27-17.2,16.27h-19.42v71.19c0,11.28-5.92,17.2-16.64,17.2h-5.18c-10.17,0-15.35-5.92-15.35-17.2v-71.19h-20.16c-11.09,0-17.01-5.73-17.01-16.27Z"/>
        <path class="cls-1" d="M537.95,419.05h-38.65l-3.33,9.25c-4.44,12.76-12.21,17.2-20.16,17.2-10.17,0-20.34-8.13-19.05-11.46l38.83-100.6c1.85-5.92,6.84-10.17,23.49-10.17s21.08,4.25,22.93,10.17l40.31,100.23c1.29,3.33-8.69,11.83-19.79,11.83-7.77,0-16.09-4.25-21.26-17.57l-3.33-8.87Zm-32.36-26.63h25.7l-12.94-34.76-12.76,34.76Z"/>
      </g>
      <g>
        <path class="cls-1" d="M63.8,281.75l-17.01-22.56h-6.66v21.08c0,11.09-5.55,17.2-16.27,17.2h-5.18c-10.17,0-15.53-7.95-15.53-21.45v-78.59c0-13.31,6.66-20.53,18.86-20.53H58.99c33.29,0,49.93,13.68,49.93,39.2,0,17.38-9.06,30.33-25.89,35.14l27,33.47c1.11,1.48-5.36,12.76-21.26,12.76-11.47,0-17.2-4.99-24.96-15.72Zm-24.22-48.82h15.53c11.09,0,16.64-4.99,16.64-13.87s-5.36-14.05-17.01-14.05h-15.16v27.92Z"/>
        <path class="cls-1" d="M123.35,276.2v-78.78c0-13.31,6.66-20.53,18.86-20.53h63.61c11.83,0,17.2,5.92,17.2,15.53v.93c0,10.17-5.36,15.53-17.2,15.53h-45.49v12.02h30.33c12.2,0,17.2,5.18,17.2,14.24v.56c0,9.61-5.18,15.16-17.2,15.16h-30.33v13.87h46.41c11.65,0,17.01,4.99,17.01,14.61v.93c0,10.17-5.36,16.27-17.01,16.27h-64.54c-12.2,0-18.86-6.84-18.86-20.34Z"/>
        <path class="cls-1" d="M237.26,276.2v-78.78c0-13.31,8.14-20.53,19.23-20.53h31.62c39.39,0,63.61,22.74,63.61,59.17s-24.96,60.47-64.35,60.47h-29.59c-11.47,0-20.53-9.06-20.53-20.34Zm49.19-11.09c17.38,0,28.66-10.54,28.66-28.85s-10.91-27.92-28.11-27.92h-13.13v56.77h12.57Z"/>
      </g>
      <g>
        <path class="cls-1" d="M574.95,135.24l-54.64-26.02v24.57l59.36,28.26,59.36-28.26v-24.57l-54.64,26.02c-2.99,1.42-6.46,1.42-9.45,0h0Z"/>
        <path class="cls-1" d="M646.45,81.35l-66.77-31.79-66.77,31.79,66.77,31.79,66.77-31.79Z"/>
        <path class="cls-1" d="M676.41,0h-193.47c-15.78,.02-28.56,12.8-28.58,28.58V183.03c.02,15.78,12.8,28.56,28.58,28.58h54.83l33.94,35.61c4.19,4.4,11.16,4.56,15.55,.37,.13-.12,.25-.24,.37-.37l33.94-35.61h54.83c15.78-.02,28.56-12.8,28.58-28.58V28.58c-.02-15.78-12.8-28.56-28.58-28.58Zm.33,91.27l-15.72,7.48v41.97c0,4.24-2.44,8.1-6.27,9.93l-70.35,33.5c-2.99,1.42-6.46,1.42-9.45,0l-70.35-33.5c-3.83-1.82-6.27-5.69-6.27-9.93v-41.97l-15.72-7.48c-5.48-2.62-7.8-9.19-5.18-14.67,1.08-2.27,2.91-4.1,5.18-5.18l92.34-43.97c2.99-1.43,6.46-1.43,9.45,0l92.34,43.97c5.48,2.62,7.8,9.19,5.18,14.67-1.08,2.27-2.91,4.1-5.18,5.18Z"/>
      </g>
    </g>
  </g>
</svg>