<?xml version="1.0" encoding="UTF-8"?>
<svg id="Capa_2" data-name="Capa 2" xmlns="http://www.w3.org/2000/svg" viewBox="0 0 402.64 402.64">
  <defs>
    <style>
      .cls-1 {
        fill: #009ee2;
      }
    </style>
  </defs>
  <g id="Capa_1-2" data-name="Capa 1">
    <g>
      <path class="cls-1" d="M193.73,217.27l-87.77-41.8v39.47l95.36,45.4,95.36-45.4v-39.47l-87.77,41.8c-4.8,2.28-10.37,2.28-15.18,0h0Z"/>
      <path class="cls-1" d="M308.59,130.68l-107.27-51.07-107.27,51.07,107.27,51.07,107.27-51.07Z"/>
      <path class="cls-1" d="M356.73,0H45.92C20.57,.03,.03,20.57,0,45.92v248.12c.03,25.35,20.57,45.89,45.92,45.92h88.09l54.52,57.21c6.74,7.06,17.93,7.33,24.99,.59,.2-.19,.4-.39,.59-.59l54.52-57.21h88.09c25.35-.03,45.89-20.57,45.92-45.92V45.92c-.03-25.35-20.57-45.89-45.92-45.92Zm.52,146.63l-25.25,12.02v67.43c0,6.81-3.92,13.02-10.07,15.95l-113.02,53.82c-4.8,2.28-10.37,2.28-15.18,0l-113.02-53.82c-6.15-2.93-10.07-9.14-10.07-15.95v-67.43l-25.25-12.02c-8.81-4.21-12.54-14.76-8.33-23.57,1.74-3.65,4.68-6.59,8.33-8.33L193.73,44.09c4.8-2.29,10.38-2.29,15.18,0l148.34,70.64c8.81,4.21,12.54,14.76,8.33,23.57-1.74,3.65-4.68,6.59-8.33,8.33Z"/>
    </g>
  </g>
</svg>